<?xml version="1.0" encoding="UTF-8"?>
<svg width="28px" height="29px" viewBox="0 0 28 29" version="1.1" xmlns="http://www.w3.org/2000/svg" xmlns:xlink="http://www.w3.org/1999/xlink">
    <title>E15AE8A7-59C8-4E54-B4F3-4E6016182885</title>
    <g id="Ui-Flow" stroke="none" stroke-width="1" fill="none" fill-rule="evenodd">
        <g id="7.0-Questionnaire-Survey" transform="translate(-236.000000, -2052.000000)" fill="#1D92EC">
            <g id="Shape-2" transform="translate(236.000000, 2052.000000)">
                <path d="M13,20 L15,20 L15,14 L13,14 L13,20 L13,20 Z M14,5 C8.48,5 4,9.48 4,15 C4,20.52 8.48,25 14,25 C19.52,25 24,20.52 24,15 C24,9.48 19.52,5 14,5 L14,5 Z M14,23 C9.59,23 6,19.41 6,15 C6,10.59 9.59,7 14,7 C18.41,7 22,10.59 22,15 C22,19.41 18.41,23 14,23 L14,23 Z M13,12 L15,12 L15,10 L13,10 L13,12 L13,12 Z" id="Shape"></path>
            </g>
        </g>
    </g>
</svg>