<?xml version="1.0" encoding="UTF-8"?>
<svg width="20px" height="21px" viewBox="0 0 20 21" version="1.1" xmlns="http://www.w3.org/2000/svg" xmlns:xlink="http://www.w3.org/1999/xlink">
    <title>3FAE5251-D3C3-4E15-B6D3-3508EEDBE6C8</title>
    <g id="Ui-Flow" stroke="none" stroke-width="1" fill="none" fill-rule="evenodd" fill-opacity="0.7">
        <g id="4.0-Question-Management" transform="translate(-1167.000000, -606.000000)" fill="#000000">
            <g id="Group-12" transform="translate(147.000000, 179.000000)">
                <g id="Group-14" transform="translate(1020.000000, 427.000000)">
                    <path d="M10,6 C11.1,6 12,5.1 12,4 C12,2.9 11.1,2 10,2 C8.9,2 8,2.9 8,4 C8,5.1 8.9,6 10,6 L10,6 Z M10,8 C8.9,8 8,8.9 8,10 C8,11.1 8.9,12 10,12 C11.1,12 12,11.1 12,10 C12,8.9 11.1,8 10,8 L10,8 Z M10,14 C8.9,14 8,14.9 8,16 C8,17.1 8.9,18 10,18 C11.1,18 12,17.1 12,16 C12,14.9 11.1,14 10,14 L10,14 Z" id="Shape-Copy-35"></path>
                </g>
            </g>
        </g>
    </g>
</svg>