<?xml version="1.0" encoding="UTF-8"?>
<svg width="28px" height="26px" viewBox="0 0 28 26" version="1.1" xmlns="http://www.w3.org/2000/svg" xmlns:xlink="http://www.w3.org/1999/xlink">
    <title>352034E6-199F-45D0-9DFB-F30E8AADE542</title>
    <g id="Ui-Flow" stroke="none" stroke-width="1" fill="none" fill-rule="evenodd">
        <g id="7.4-login-elRA-Management-Portal" transform="translate(-451.000000, -312.000000)" fill="#9B9B9B" fill-rule="nonzero">
            <g id="Group-24" transform="translate(390.000000, 157.000000)">
                <g id="Group-15" transform="translate(59.000000, 37.000000)">
                    <g id="Group-14" transform="translate(0.000000, 118.000000)">
                        <g id="envelope-solid" transform="translate(2.000000, 0.000000)">
                            <path d="M23.6210938,10.8965437 C23.7734375,10.7802466 24,10.8890407 24,11.0728652 L24,18.7447247 C24,19.7388776 23.1601562,20.5454545 22.125,20.5454545 L5.875,20.5454545 C4.83984375,20.5454545 4,19.7388776 4,18.7447247 L4,11.0766167 C4,10.8890407 4.22265625,10.7839981 4.37890625,10.9002952 C5.25390625,11.5530598 6.4140625,12.3821458 10.3984375,15.1620226 C11.2226562,15.7397567 12.6132812,16.9552494 14,16.9477463 C15.3945312,16.9590009 16.8125,15.7172476 17.6054688,15.1620226 C21.5898438,12.3821458 22.7460938,11.5493083 23.6210938,10.8965437 Z M14,15.6968176 C14.90625,15.7119689 16.2109375,14.5907744 16.8671875,14.1286604 C22.0507812,10.4809903 22.4453125,10.1628135 23.640625,9.25373686 C23.8671875,9.08328499 24,8.81813763 24,8.53783899 L24,7.81815331 C24,6.81438117 23.1601562,6 22.125,6 L5.875,6 C4.83984375,6 4,6.81438117 4,7.81815331 L4,8.53783899 C4,8.81813763 4.1328125,9.07949717 4.359375,9.25373686 C5.5546875,10.1590257 5.94921875,10.4809903 11.1328125,14.1286604 C11.7890625,14.5907744 13.09375,15.7119689 14,15.6968176 Z" id="Shape"></path>
                        </g>
                    </g>
                </g>
            </g>
        </g>
    </g>
</svg>