<?xml version="1.0" encoding="UTF-8"?>
<svg width="20px" height="15px" viewBox="0 0 20 15" version="1.1" xmlns="http://www.w3.org/2000/svg" xmlns:xlink="http://www.w3.org/1999/xlink">
    <title>021088EE-F37B-435B-8E19-7CDCAA6EFD28</title>
    <g id="Ui-Flow" stroke="none" stroke-width="1" fill="none" fill-rule="evenodd">
        <g id="3.0-BU-Management" transform="translate(-48.000000, -194.000000)" fill="#1D92EC" fill-rule="nonzero">
            <g id="header" transform="translate(0.000000, -4.000000)">
                <g id="Group-7" transform="translate(39.000000, 193.000000)">
                    <g id="conference" transform="translate(9.000000, 5.000000)">
                        <path d="M18.5714286,1.42857143 L16.4285714,1.42857143 L16.4285714,3.92857143 C17.0442857,3.92857143 17.4107143,4.49071429 17.4107143,5.22071429 C17.4107143,5.585 17.2092857,5.96642857 17.2092857,5.96642857 C17.2092857,5.96642857 17.3214286,6.00428571 17.3214286,6.255 C17.3214286,6.61642857 17.0292857,6.81857143 17.0292857,6.81857143 C16.9885714,7.17928571 16.4285714,7.70642857 16.4285714,7.70642857 L16.4285714,8.30785714 C16.7292857,9.21 18.5714286,8.60857143 18.5714286,10.7135714 L16.4285714,10.7135714 L16.4285714,12.8564286 L18.5714286,12.8564286 C19.3607143,12.8564286 20,12.2171429 20,11.4278571 L20,2.85714286 C20,2.06785714 19.3607143,1.42857143 18.5714286,1.42857143 Z" id="Path"></path>
                        <path d="M13.5714286,0 L6.42857143,0 C5.63928571,0 5,0.639285714 5,1.42857143 L5,12.8571429 C5,13.6464286 5.63928571,14.2857143 6.42857143,14.2857143 L13.5714286,14.2857143 C14.3607143,14.2857143 15,13.6464286 15,12.8571429 L15,1.42857143 C15,0.639285714 14.3607143,0 13.5714286,0 Z M7.14285714,10.7142857 C7.14285714,8.61571429 8.985,9.21071429 9.28571429,8.30857143 L9.28571429,7.70714286 C9.28571429,7.70714286 8.72571429,7.17928571 8.685,6.81928571 C8.685,6.81928571 8.39285714,6.71 8.39285714,6.25571429 C8.39285714,6.02142857 8.505,5.96714286 8.505,5.96714286 C8.505,5.96714286 8.25928571,5.62571429 8.25928571,5.18785714 C8.25857143,4.15071429 9.03857143,3.57142857 10,3.57142857 C10.4528571,3.57142857 10.7142857,3.92857143 10.7142857,3.92857143 C11.33,3.92857143 11.6964286,4.49071429 11.6964286,5.22071429 C11.6964286,5.585 11.495,5.96642857 11.495,5.96642857 C11.495,5.96642857 11.6071429,6.00428571 11.6071429,6.255 C11.6071429,6.61642857 11.315,6.81857143 11.315,6.81857143 C11.2742857,7.17928571 10.7142857,7.70642857 10.7142857,7.70642857 L10.7142857,8.30785714 C11.015,9.21 12.8571429,8.60857143 12.8571429,10.7135714 L7.14285714,10.7135714 L7.14285714,10.7142857 Z" id="Shape"></path>
                        <path d="M1.42857143,10.7142857 C1.42857143,8.61571429 3.27071429,9.21071429 3.57142857,8.30857143 L3.57142857,7.70714286 C3.57142857,7.70714286 3.01142857,7.17928571 2.97071429,6.81928571 C2.97071429,6.81928571 2.67857143,6.71 2.67857143,6.25571429 C2.67857143,6.02142857 2.79071429,5.96714286 2.79071429,5.96714286 C2.79071429,5.96714286 2.545,5.62571429 2.545,5.18785714 C2.545,4.42642857 2.96714286,3.915 3.57214286,3.695 L3.57214286,1.42857143 L1.42857143,1.42857143 C0.639285714,1.42857143 0,2.06785714 0,2.85714286 L0,11.4285714 C0,12.2178571 0.639285714,12.8571429 1.42857143,12.8571429 L3.57142857,12.8571429 L3.57142857,10.7142857 L1.42857143,10.7142857 Z" id="Path"></path>
                    </g>
                </g>
            </g>
        </g>
    </g>
</svg>