<?xml version="1.0" encoding="UTF-8"?>
<svg width="24px" height="24px" viewBox="0 0 24 24" version="1.1" xmlns="http://www.w3.org/2000/svg" xmlns:xlink="http://www.w3.org/1999/xlink">
    <!-- Generator: sketchtool 63.1 (101010) - https://sketch.com -->
    <title>6BCDED74-0921-4D93-87B0-B3D0F317215E</title>
    <desc>Created with sketchtool.</desc>
    <g id="Ui-Flow" stroke="none" stroke-width="1" fill="none" fill-rule="evenodd">
        <g id="2.2-Questionnaire-Info" transform="translate(-1183.000000, -774.000000)" fill="#9A9A9A">
            <g id="ic_content_copy-copy-3" transform="translate(1183.000000, 774.000000)">
                <g id="Group-16">
                    <path d="M15.4545455,3 L5.63636364,3 C4.73636364,3 4,3.73636364 4,4.63636364 L4,16.0909091 L5.63636364,16.0909091 L5.63636364,4.63636364 L15.4545455,4.63636364 L15.4545455,3 L15.4545455,3 Z M17.9090909,6.27272727 L8.90909091,6.27272727 C8.00909091,6.27272727 7.27272727,7.00909091 7.27272727,7.90909091 L7.27272727,19.3636364 C7.27272727,20.2636364 8.00909091,21 8.90909091,21 L17.9090909,21 C18.8090909,21 19.5454545,20.2636364 19.5454545,19.3636364 L19.5454545,7.90909091 C19.5454545,7.00909091 18.8090909,6.27272727 17.9090909,6.27272727 L17.9090909,6.27272727 Z M17.9090909,19.3636364 L8.90909091,19.3636364 L8.90909091,7.90909091 L17.9090909,7.90909091 L17.9090909,19.3636364 L17.9090909,19.3636364 Z" id="Shape"></path>
                </g>
            </g>
        </g>
    </g>
</svg>