<?xml version="1.0" encoding="UTF-8"?>
<svg width="24px" height="24px" viewBox="0 0 24 24" version="1.1" xmlns="http://www.w3.org/2000/svg" xmlns:xlink="http://www.w3.org/1999/xlink">
    <!-- Generator: sketchtool 63.1 (101010) - https://sketch.com -->
    <title>C1B82AA6-F6A7-4C4F-85CB-B477CA6F09BB</title>
    <desc>Created with sketchtool.</desc>
    <g id="Ui-Flow" stroke="none" stroke-width="1" fill="none" fill-rule="evenodd">
        <g id="2.2-Questionnaire-Info" transform="translate(-1207.000000, -774.000000)" fill="#9A9A9A">
            <g id="ic_content_paste-copy-3" transform="translate(1207.000000, 774.000000)">
                <g id="Group-17">
                    <path d="M18.0909091,4.63636364 L14.6709091,4.63636364 C14.3272727,3.68727273 13.4272727,3 12.3636364,3 C11.3,3 10.4,3.68727273 10.0563636,4.63636364 L6.63636364,4.63636364 C5.73636364,4.63636364 5,5.37272727 5,6.27272727 L5,19.3636364 C5,20.2636364 5.73636364,21 6.63636364,21 L18.0909091,21 C18.9909091,21 19.7272727,20.2636364 19.7272727,19.3636364 L19.7272727,6.27272727 C19.7272727,5.37272727 18.9909091,4.63636364 18.0909091,4.63636364 L18.0909091,4.63636364 Z M12.3636364,4.63636364 C12.8136364,4.63636364 13.1818182,5.00454545 13.1818182,5.45454545 C13.1818182,5.90454545 12.8136364,6.27272727 12.3636364,6.27272727 C11.9136364,6.27272727 11.5454545,5.90454545 11.5454545,5.45454545 C11.5454545,5.00454545 11.9136364,4.63636364 12.3636364,4.63636364 L12.3636364,4.63636364 Z M18.0909091,19.3636364 L6.63636364,19.3636364 L6.63636364,6.27272727 L8.27272727,6.27272727 L8.27272727,8.72727273 L16.4545455,8.72727273 L16.4545455,6.27272727 L18.0909091,6.27272727 L18.0909091,19.3636364 L18.0909091,19.3636364 Z" id="Shape"></path>
                </g>
            </g>
        </g>
    </g>
</svg>