<?xml version="1.0" encoding="UTF-8"?>
<svg width="27px" height="27px" viewBox="0 0 27 27" version="1.1" xmlns="http://www.w3.org/2000/svg" xmlns:xlink="http://www.w3.org/1999/xlink">
    <!-- Generator: sketchtool 63.1 (101010) - https://sketch.com -->
    <title>F921CB51-9F38-4778-8BA3-3C20C1209B62</title>
    <desc>Created with sketchtool.</desc>
    <g id="Page-1" stroke="none" stroke-width="1" fill="none" fill-rule="evenodd">
        <g id="homepage-1440" transform="translate(-21.000000, -151.000000)" fill="#9B9B9B" fill-rule="nonzero">
            <g id="header">
                <g id="Group-13" transform="translate(21.000000, 151.000000)">
                    <g id="briefcase-拷貝" transform="translate(5.000000, 6.000000)">
                        <path d="M16.6153846,1.38461538 L1.38461538,1.38461538 C0.619615385,1.38461538 0,2.00423077 0,2.76923077 L0,9 C0,9.765 0.619615385,10.3846154 1.38461538,10.3846154 L16.6153846,10.3846154 C17.3803846,10.3846154 18,9.765 18,9 L18,2.76923077 C18,2.00423077 17.3803846,1.38461538 16.6153846,1.38461538 Z M9,9 C8.61784615,9 8.30769231,8.68984615 8.30769231,8.30769231 C8.30769231,7.92553846 8.61784615,7.61538462 9,7.61538462 C9.38215385,7.61538462 9.69230769,7.92553846 9.69230769,8.30769231 C9.69230769,8.68984615 9.38215385,9 9,9 Z" id="Shape"></path>
                        <path d="M16.6153846,11.7692308 L1.38461538,11.7692308 C0.877846154,11.7692308 0.409153846,11.6224615 0,11.3843077 L0,13.8461538 C0,14.6111538 0.619615385,15.2307692 1.38461538,15.2307692 L16.6153846,15.2307692 C17.3803846,15.2307692 18,14.6111538 18,13.8461538 L18,11.3843077 C17.5908462,11.6224615 17.1221538,11.7692308 16.6153846,11.7692308 Z" id="Path"></path>
                        <path d="M11.0769231,2.07692308 L6.92307692,2.07692308 L6.92307692,1.38461538 C6.92307692,0.619615385 7.54269231,0 8.30769231,0 L9.69230769,0 C10.4573077,0 11.0769231,0.619615385 11.0769231,1.38461538 L11.0769231,2.07692308 Z" id="Path"></path>
                    </g>
                </g>
            </g>
        </g>
    </g>
</svg>