<?xml version="1.0" encoding="UTF-8"?>
<svg width="27px" height="27px" viewBox="0 0 27 27" version="1.1" xmlns="http://www.w3.org/2000/svg" xmlns:xlink="http://www.w3.org/1999/xlink">
    <title>5667F28B-8F5C-4DC1-98D2-4CBF2493BB33</title>
    <g id="Ui-Flow" stroke="none" stroke-width="1" fill="none" fill-rule="evenodd">
        <g id="1.1-Profile-Information" transform="translate(-44.000000, -72.000000)" fill="#9B9B9B" fill-rule="nonzero">
            <g id="Group-8" transform="translate(26.000000, 72.000000)">
                <g id="Group-12" transform="translate(18.000000, 0.000000)">
                    <g id="home" transform="translate(5.000000, 5.000000)">
                        <circle id="Oval" cx="17.25" cy="7.5" r="1"></circle>
                        <circle id="Oval" cx="9" cy="0.75" r="1"></circle>
                        <circle id="Oval" cx="0.75" cy="7.5" r="1"></circle>
                        <path d="M16.5,6.75 L14.25,6.75 L14.25,3 C14.25,2.586 14.586,2.25 15,2.25 L15.75,2.25 C16.164,2.25 16.5,2.586 16.5,3 L16.5,6.75 Z" id="Path"></path>
                        <path d="M0.75,8.25 L0.23925,6.951 L8.4915,0.20025 L9,0.75 L9.5085,0.20025 L17.76075,6.951 L17.25,8.25 L0.75,8.25 Z" id="Combined-Shape"></path>
                        <path d="M1.5,7.5 L1.5,16.5 C1.5,17.32875 2.17125,18 3,18 L15,18 C15.82875,18 16.5,17.32875 16.5,16.5 L16.5,7.5 L1.5,7.5 Z M14.25,15.75 L11.25,15.75 L11.25,9.75 L14.25,9.75 L14.25,15.75 Z" id="Shape"></path>
                    </g>
                </g>
            </g>
        </g>
    </g>
</svg>