<?xml version="1.0" encoding="UTF-8"?>
<svg width="27px" height="27px" viewBox="0 0 27 27" version="1.1" xmlns="http://www.w3.org/2000/svg" xmlns:xlink="http://www.w3.org/1999/xlink">
    <!-- Generator: sketchtool 63.1 (101010) - https://sketch.com -->
    <title>7C03E4EB-3FAD-4CFC-A399-983EA80DB2C3</title>
    <desc>Created with sketchtool.</desc>
    <g id="Page-1" stroke="none" stroke-width="1" fill="none" fill-rule="evenodd">
        <g id="homepage-1440" transform="translate(-21.000000, -450.000000)" fill="#9B9B9B">
            <g id="header">
                <g id="Group-12" transform="translate(21.000000, 450.000000)">
                    <path d="M19.3333333,6.7 L15.85,6.7 C15.5,5.714 14.5833333,5 13.5,5 C12.4166667,5 11.5,5.714 11.15,6.7 L7.66666667,6.7 C6.75,6.7 6,7.465 6,8.4 L6,20.3 C6,21.235 6.75,22 7.66666667,22 L19.3333333,22 C20.25,22 21,21.235 21,20.3 L21,8.4 C21,7.465 20.25,6.7 19.3333333,6.7 L19.3333333,6.7 Z M13.5,6.7 C13.9583333,6.7 14.3333333,7.0825 14.3333333,7.55 C14.3333333,8.0175 13.9583333,8.4 13.5,8.4 C13.0416667,8.4 12.6666667,8.0175 12.6666667,7.55 C12.6666667,7.0825 13.0416667,6.7 13.5,6.7 L13.5,6.7 Z M15.1666667,18.6 L9.33333333,18.6 L9.33333333,16.9 L15.1666667,16.9 L15.1666667,18.6 L15.1666667,18.6 Z M17.6666667,15.2 L9.33333333,15.2 L9.33333333,13.5 L17.6666667,13.5 L17.6666667,15.2 L17.6666667,15.2 Z M17.6666667,11.8 L9.33333333,11.8 L9.33333333,10.1 L17.6666667,10.1 L17.6666667,11.8 L17.6666667,11.8 Z" id="Shape"></path>
                </g>
            </g>
        </g>
    </g>
</svg>