<?xml version="1.0" encoding="UTF-8"?>
<svg width="27px" height="27px" viewBox="0 0 27 27" version="1.1" xmlns="http://www.w3.org/2000/svg" xmlns:xlink="http://www.w3.org/1999/xlink">
    <!-- Generator: sketchtool 63.1 (101010) - https://sketch.com -->
    <title>A54E0B77-3AE9-463E-A5CE-A6662D824B74</title>
    <desc>Created with sketchtool.</desc>
    <g id="Page-1" stroke="none" stroke-width="1" fill="none" fill-rule="evenodd">
        <g id="homepage-1440" transform="translate(-21.000000, -330.000000)" fill="#9B9B9B" fill-rule="nonzero">
            <g id="header">
                <g id="Group-15" transform="translate(21.000000, 330.000000)">
                    <g id="documents" transform="translate(5.000000, 5.000000)">
                        <path d="M16.7735909,4.47640909 L12.5235909,0.226409091 C12.3783182,0.0811363636 12.1820455,0 11.9772727,0 L5.40909091,0 C4.55522727,0 3.86363636,0.691590909 3.86363636,1.54545455 L3.86363636,15.4545455 C3.86363636,16.3084091 4.55522727,17 5.40909091,17 L15.4545455,17 C16.3084091,17 17,16.3084091 17,15.4545455 L17,5.02272727 C17,4.81795455 16.9188636,4.62168182 16.7735909,4.47640909 Z M11.5909091,13.1363636 L7.72727273,13.1363636 C7.30072727,13.1363636 6.95454545,12.7901818 6.95454545,12.3636364 C6.95454545,11.9370909 7.30072727,11.5909091 7.72727273,11.5909091 L11.5909091,11.5909091 C12.0174545,11.5909091 12.3636364,11.9370909 12.3636364,12.3636364 C12.3636364,12.7901818 12.0174545,13.1363636 11.5909091,13.1363636 Z M13.1363636,10.0454545 L7.72727273,10.0454545 C7.30072727,10.0454545 6.95454545,9.69927273 6.95454545,9.27272727 C6.95454545,8.84618182 7.30072727,8.5 7.72727273,8.5 L13.1363636,8.5 C13.5629091,8.5 13.9090909,8.84618182 13.9090909,9.27272727 C13.9090909,9.69927273 13.5629091,10.0454545 13.1363636,10.0454545 Z M12.3636364,5.40909091 C11.9370909,5.40909091 11.5909091,5.06290909 11.5909091,4.63636364 L11.5909091,1.47127273 L15.5287273,5.40909091 L12.3636364,5.40909091 Z" id="Shape"></path>
                        <path d="M2.31818182,15.4545455 L2.31818182,1.54545455 C2.31818182,0.979818182 2.482,0.456681818 2.74781818,0 L1.54545455,0 C0.691590909,0 0,0.691590909 0,1.54545455 L0,15.4545455 C0,16.3084091 0.691590909,17 1.54545455,17 L2.74781818,17 C2.482,16.5433182 2.31818182,16.0201818 2.31818182,15.4545455 Z" id="Path"></path>
                    </g>
                </g>
            </g>
        </g>
    </g>
</svg>