<?xml version="1.0" encoding="UTF-8"?>
<svg width="20px" height="20px" viewBox="0 0 20 20" version="1.1" xmlns="http://www.w3.org/2000/svg" xmlns:xlink="http://www.w3.org/1999/xlink">
    <title>83FDC073-CB7C-41EB-8EEF-0FFBEA073D73</title>
    <g id="Ui-Flow" stroke="none" stroke-width="1" fill="none" fill-rule="evenodd">
        <g id="7.4-login-elRA-Management-Portal" transform="translate(-1228.000000, -18.000000)" fill="#B6B6B6" fill-rule="nonzero">
            <g id="header">
                <g id="user-solid-(1)" transform="translate(1228.000000, 18.000000)">
                    <path d="M10,10 C12.209375,10 14,8.209375 14,6 C14,3.790625 12.209375,2 10,2 C7.790625,2 6,3.790625 6,6 C6,8.209375 7.790625,10 10,10 Z M12.8,11 L12.278125,11 C11.584375,11.31875 10.8125,11.5 10,11.5 C9.1875,11.5 8.41875,11.31875 7.721875,11 L7.2,11 C4.88125,11 3,12.88125 3,15.2 L3,16.5 C3,17.328125 3.671875,18 4.5,18 L15.5,18 C16.328125,18 17,17.328125 17,16.5 L17,15.2 C17,12.88125 15.11875,11 12.8,11 Z" id="Shape"></path>
                </g>
            </g>
        </g>
    </g>
</svg>